<svg width="1154" height="295" xmlns="http://www.w3.org/2000/svg" xmlns:xlink="http://www.w3.org/1999/xlink" overflow="hidden"><defs><clipPath id="clip0"><rect x="48" y="155" width="1154" height="295"/></clipPath></defs><g clip-path="url(#clip0)" transform="translate(-48 -155)"><path d="M49.5001 225.834C49.5001 204.663 66.6628 187.5 87.8341 187.5L399.166 187.5C420.337 187.5 437.5 204.663 437.5 225.834L437.5 379.166C437.5 400.337 420.337 417.5 399.166 417.5L87.8341 417.5C66.6628 417.5 49.5001 400.337 49.5001 379.166Z" stroke="#2F528F" stroke-width="1.33333" stroke-miterlimit="8" fill="#4472C4" fill-rule="evenodd"/><text fill="#FFFFFF" font-family="Calibri,Calibri_MSFontService,sans-serif" font-weight="400" font-size="20" transform="translate(70.214 221)">Input: Nexus File (.nxs)<tspan font-size="20" x="0" y="22">Software: DAWN</tspan><tspan font-size="20" x="0" y="44">Tasks (XY plotting tools &gt; processing XY): </tspan><tspan font-size="20" x="48" y="65">Crop Data in energy range (Crop </tspan><tspan font-size="20" x="48" y="87">Data [1D])</tspan><tspan font-size="20" x="48" y="108">XAFS Normalisation of data (XAFS </tspan><tspan font-size="20" x="48" y="130">Normalisation [XAFS Analysis]) </tspan><tspan font-size="20" x="48" y="152">Export to as Text Files (.</tspan>dat<tspan font-size="20" x="264.767" y="152">)</tspan><tspan font-size="20" x="0" y="173">Output: Text Files (.</tspan><tspan font-size="20" x="157.147" y="173">dat</tspan><tspan font-size="20" x="183.627" y="173">)</tspan></text><path d="M520.5 225.834C520.5 204.663 537.663 187.5 558.834 187.5L777.166 187.5C798.337 187.5 815.5 204.663 815.5 225.834L815.5 379.166C815.5 400.337 798.337 417.5 777.166 417.5L558.834 417.5C537.663 417.5 520.5 400.337 520.5 379.166Z" stroke="#AE5A21" stroke-width="1.33333" stroke-miterlimit="8" fill="#ED7D31" fill-rule="evenodd"/><text fill="#FFFFFF" font-family="Calibri,Calibri_MSFontService,sans-serif" font-weight="400" font-size="20" transform="translate(540.475 221)">Input: Text Files (.<tspan font-size="20" x="142.313" y="0">dat</tspan><tspan font-size="20" x="168.793" y="0">)</tspan><tspan font-size="20" x="0" y="22">Software: Athena</tspan><tspan font-size="20" x="0" y="44">Tasks:</tspan><tspan font-size="20" x="48" y="65">Create Athena project</tspan><tspan font-size="20" x="48" y="87">Add Data from DAT Files </tspan><tspan font-size="20" x="48" y="108">(Limit on the number of </tspan><tspan font-size="20" x="48" y="130">files added)</tspan><tspan font-size="20" x="48" y="152">Save Athena Project File</tspan><tspan font-size="20" x="0" y="173">Output: Athena File (.</tspan>prj<tspan font-size="20" x="196.827" y="173">)</tspan></text><path d="M897.5 206.001C897.5 179.215 919.215 157.5 946.001 157.5L1153 157.5C1179.79 157.5 1201.5 179.215 1201.5 206.001L1201.5 399.999C1201.5 426.785 1179.79 448.5 1153 448.5L946.001 448.5C919.215 448.5 897.5 426.785 897.5 399.999Z" stroke="#507E32" stroke-width="1.33333" stroke-miterlimit="8" fill="#70AD47" fill-rule="evenodd"/><text fill="#FFFFFF" font-family="Calibri,Calibri_MSFontService,sans-serif" font-weight="400" font-size="20" transform="translate(921.237 191)">Input: Athena file (.<tspan font-size="20" x="156.66" y="0">prj</tspan><tspan font-size="20" x="178.993" y="0">)</tspan><tspan font-size="20" x="0" y="20">Software: </tspan>Artemis<tspan font-size="20" x="0" y="39">Tasks:</tspan><tspan font-size="20" x="48" y="58">Create </tspan><tspan font-size="20" x="105.667" y="58">Artemis </tspan><tspan font-size="20" x="173.62" y="58">project</tspan><tspan font-size="20" x="48" y="77">Add </tspan>Athena File <tspan font-size="20" x="48" y="96">Add</tspan><tspan font-size="20" x="85" y="96">Crystal</tspan><tspan font-size="20" x="144.273" y="96">data</tspan><tspan font-size="20" x="48" y="116">Calculate paths (FEEF) </tspan><tspan font-size="20" x="48" y="135">Select</tspan><tspan font-size="20" x="101.5" y="135">paths</tspan><tspan font-size="20" x="48" y="154">Fit Data</tspan><tspan font-size="20" x="48" y="173">Save </tspan><tspan font-size="20" x="89.64" y="173">Artemis </tspan><tspan font-size="20" x="157.593" y="173">Project File</tspan><tspan font-size="20" x="0" y="192">Output: </tspan><tspan font-size="20" x="47" y="212">Artemis </tspan><tspan font-size="20" x="114.953" y="212">File </tspan>(.<tspan font-size="20" x="158.56" y="212">fpj</tspan>)<tspan font-size="20" x="47" y="231">Fit Graph(s)</tspan></text><path d="M449.5 290.25 483 290.25 483 277.5 508.5 303 483 328.5 483 315.75 449.5 315.75Z" stroke="#BC8C00" stroke-width="1.33333" stroke-miterlimit="8" fill="#FFC000" fill-rule="evenodd"/><path d="M827.5 290.25 860 290.25 860 277.5 885.5 303 860 328.5 860 315.75 827.5 315.75Z" stroke="#BC8C00" stroke-width="1.33333" stroke-miterlimit="8" fill="#FFC000" fill-rule="evenodd"/></g></svg>