<svg width="1171" height="233" xmlns="http://www.w3.org/2000/svg" xmlns:xlink="http://www.w3.org/1999/xlink" overflow="hidden"><defs><clipPath id="clip0"><rect x="48" y="186" width="1171" height="233"/></clipPath></defs><g clip-path="url(#clip0)" transform="translate(-48 -186)"><path d="M49.5001 225.834C49.5001 204.663 66.6628 187.5 87.8341 187.5L399.166 187.5C420.337 187.5 437.5 204.663 437.5 225.834L437.5 379.166C437.5 400.337 420.337 417.5 399.166 417.5L87.8341 417.5C66.6628 417.5 49.5001 400.337 49.5001 379.166Z" stroke="#2F528F" stroke-width="1.33333" stroke-miterlimit="8" fill="#4472C4" fill-rule="evenodd"/><text fill="#FFFFFF" font-family="Calibri,Calibri_MSFontService,sans-serif" font-weight="400" font-size="20" transform="translate(70.214 221)">Input: Nexus File (.nxs)<tspan font-size="20" x="0" y="22">Software: DAWN</tspan><tspan font-size="20" x="0" y="44">Tasks (XY plotting tools &gt; processing XY): </tspan><tspan font-size="20" x="48" y="65">Crop Data in energy range (Crop </tspan><tspan font-size="20" x="48" y="87">Data [1D])</tspan><tspan font-size="20" x="48" y="108">XAFS Normalisation of data (XAFS </tspan><tspan font-size="20" x="48" y="130">Normalisation [XAFS Analysis]) </tspan><tspan font-size="20" x="48" y="152">Export to as Text Files (.</tspan>dat<tspan font-size="20" x="264.767" y="152">)</tspan><tspan font-size="20" x="0" y="173">Output: Text Files (.</tspan><tspan font-size="20" x="157.147" y="173">dat</tspan><tspan font-size="20" x="183.627" y="173">)</tspan></text><path d="M511.5 225.834C511.5 204.663 528.663 187.5 549.834 187.5L769.166 187.5C790.337 187.5 807.5 204.663 807.5 225.834L807.5 379.166C807.5 400.337 790.337 417.5 769.166 417.5L549.834 417.5C528.663 417.5 511.5 400.337 511.5 379.166Z" stroke="#AE5A21" stroke-width="1.33333" stroke-miterlimit="8" fill="#ED7D31" fill-rule="evenodd"/><text fill="#FFFFFF" font-family="Calibri,Calibri_MSFontService,sans-serif" font-weight="400" font-size="20" transform="translate(532.127 221)">Input: Text Files (.<tspan font-size="20" x="142.313" y="0">dat</tspan><tspan font-size="20" x="168.793" y="0">)</tspan><tspan font-size="20" x="0" y="22">Software: Athena</tspan><tspan font-size="20" x="0" y="44">Tasks:</tspan><tspan font-size="20" x="48" y="65">Create Athena project</tspan><tspan font-size="20" x="48" y="87">Add Data from DAT Files </tspan><tspan font-size="20" x="48" y="108">(Limit on the number of </tspan><tspan font-size="20" x="48" y="130">files added)</tspan><tspan font-size="20" x="48" y="152">Save Athena Project File</tspan><tspan font-size="20" x="0" y="173">Output: Athena File (.</tspan>prj<tspan font-size="20" x="196.827" y="173">)</tspan></text><path d="M881.5 225.834C881.5 204.663 898.663 187.5 919.834 187.5L1180.17 187.5C1201.34 187.5 1218.5 204.663 1218.5 225.834L1218.5 379.166C1218.5 400.337 1201.34 417.5 1180.17 417.5L919.834 417.5C898.663 417.5 881.5 400.337 881.5 379.166Z" stroke="#507E32" stroke-width="1.33333" stroke-miterlimit="8" fill="#70AD47" fill-rule="evenodd"/><text fill="#FFFFFF" font-family="Calibri,Calibri_MSFontService,sans-serif" font-weight="400" font-size="20" transform="translate(901.518 220)">Input: Text Files (.<tspan font-size="20" x="142.313" y="0">dat</tspan><tspan font-size="20" x="168.793" y="0">)</tspan><tspan font-size="20" x="0" y="20">Software: Athena</tspan><tspan font-size="20" x="0" y="39">Tasks:</tspan><tspan font-size="20" x="48" y="58">Create Athena project</tspan><tspan font-size="20" x="48" y="77">Add Data from DAT Files (Limit </tspan><tspan font-size="20" x="48" y="96">on the number of files added)</tspan><tspan font-size="20" x="48" y="116">Save Athena Project File</tspan><tspan font-size="20" x="0" y="135">Output: </tspan><tspan font-size="20" x="47" y="154">Athena File (.</tspan><tspan font-size="20" x="153.66" y="154">prj</tspan><tspan font-size="20" x="175.993" y="154">)</tspan><tspan font-size="20" x="47" y="173">Fit Graph(s)</tspan></text><path d="M445.5 290.25 478 290.25 478 277.5 503.5 303 478 328.5 478 315.75 445.5 315.75Z" stroke="#BC8C00" stroke-width="1.33333" stroke-miterlimit="8" fill="#FFC000" fill-rule="evenodd"/><path d="M814.5 290.25 848 290.25 848 277.5 873.5 303 848 328.5 848 315.75 814.5 315.75Z" stroke="#BC8C00" stroke-width="1.33333" stroke-miterlimit="8" fill="#FFC000" fill-rule="evenodd"/></g></svg>